<svg xmlns="http://www.w3.org/2000/svg" viewBox="0 0 512 512">
  <defs>
    <linearGradient id="bgGrad" x1="0%" y1="0%" x2="100%" y2="100%">
      <stop offset="0%" stop-color="#7c9cff" />
      <stop offset="100%" stop-color="#4f68d8" />
    </linearGradient>
    <linearGradient id="maneGrad" x1="0%" y1="0%" x2="100%" y2="100%">
      <stop offset="0%" stop-color="#ffb347" />
      <stop offset="100%" stop-color="#ff7a59" />
    </linearGradient>
  </defs>

  <!-- Background -->
  <rect width="512" height="512" rx="112" fill="url(#bgGrad)" />

  <g transform="translate(0, 20)">
    <!-- Abstract Lion Mane (Sunburst/Polygon shape) -->
    <path d="M 256 60 
             L 310 100 L 380 80 L 400 150 
             L 470 180 L 420 246 L 470 312
             L 400 342 L 380 412 L 310 392
             L 256 432 L 202 392 L 132 412
             L 112 342 L 42 312 L 92 246
             L 42 180 L 112 150 L 132 80
             L 202 100 Z" 
          fill="url(#maneGrad)" />
    
    <!-- Lion Face (Shield/Hexagon) -->
    <path d="M 170 160 L 342 160 Q 360 330 256 390 Q 152 330 170 160 Z" fill="#ffffff" />
    
    <!-- Squinting Happy Eyes (眯眯眼) -->
    <path d="M 180 230 Q 197 210 214 230" fill="none" stroke="#4f68d8" stroke-width="14" stroke-linecap="round" />
    <path d="M 298 230 Q 315 210 332 230" fill="none" stroke="#4f68d8" stroke-width="14" stroke-linecap="round" />
    
    <!-- Cute Blush (小腮红，更显可爱) -->
    <ellipse cx="170" cy="245" rx="14" ry="8" fill="#ff7a59" opacity="0.3" />
    <ellipse cx="342" cy="245" rx="14" ry="8" fill="#ff7a59" opacity="0.3" />
    
    <!-- Cute Lion Nose -->
    <polygon points="236,275 276,275 256,305" fill="#4f68d8" />
    
    <!-- Cute Lion Mouth -->
    <path d="M 256 305 Q 256 335 226 330" fill="none" stroke="#4f68d8" stroke-width="10" stroke-linecap="round" />
    <path d="M 256 305 Q 256 335 286 330" fill="none" stroke="#4f68d8" stroke-width="10" stroke-linecap="round" />

    <!-- Big Graduation Hat / Mortarboard -->
    <!-- Hat Skullcap Base -->
    <path d="M 160 100 Q 256 165 352 100 Q 256 130 160 100 Z" fill="#30417a" />
    
    <!-- Hat Top Board (Diamond) -->
    <polygon points="256,25 396,85 256,145 116,85" fill="#24304d" />
    
    <!-- Tassel hanging down -->
    <path d="M 256 85 Q 360 110 375 190" fill="none" stroke="#ffda6a" stroke-width="8" stroke-linecap="round" />
    
    <!-- Tassel fringing -->
    <path d="M 369 190 L 364 220 M 375 190 L 375 225 M 381 190 L 386 220" stroke="#ffda6a" stroke-width="5" stroke-linecap="round" />
    
    <!-- Hat Top Button -->
    <circle cx="256" cy="85" r="10" fill="#ffda6a" />
  </g>
</svg>