<svg xmlns="http://www.w3.org/2000/svg" viewBox="0 0 512 512">
  <defs>
    <linearGradient id="bgGrad" x1="0%" y1="0%" x2="100%" y2="100%">
      <stop offset="0%" stop-color="#7c9cff" />
      <stop offset="100%" stop-color="#4f68d8" />
    </linearGradient>
    <linearGradient id="maneGrad" x1="0%" y1="0%" x2="100%" y2="100%">
      <stop offset="0%" stop-color="#ffb347" />
      <stop offset="100%" stop-color="#ff7a59" />
    </linearGradient>
  </defs>

  <!-- Background -->
  <rect width="512" height="512" rx="112" fill="url(#bgGrad)" />

  <g transform="translate(0, 20)">
    <!-- Abstract Lion Mane (Sunburst/Polygon shape) -->
    <path d="M 256 60 
             L 310 100 L 380 80 L 400 150 
             L 470 180 L 420 246 L 470 312
             L 400 342 L 380 412 L 310 392
             L 256 432 L 202 392 L 132 412
             L 112 342 L 42 312 L 92 246
             L 42 180 L 112 150 L 132 80
             L 202 100 Z" 
          fill="url(#maneGrad)" />
    
    <!-- Lion Face (Shield/Hexagon) -->
    <path d="M 170 160 L 342 160 Q 360 330 256 390 Q 152 330 170 160 Z" fill="#ffffff" />
    
    <!-- Smart Glasses -->
    <rect x="155" y="190" width="85" height="60" rx="18" fill="none" stroke="#4f68d8" stroke-width="16" />
    <rect x="272" y="190" width="85" height="60" rx="18" fill="none" stroke="#4f68d8" stroke-width="16" />
    <path d="M 240 220 L 272 220" stroke="#4f68d8" stroke-width="14" stroke-linecap="round" />
    
    <!-- Eyes (focused/smart) -->
    <circle cx="197" cy="220" r="14" fill="#4f68d8" />
    <circle cx="314" cy="220" r="14" fill="#4f68d8" />
    
    <!-- Cute Lion Nose -->
    <polygon points="236,280 276,280 256,310" fill="#4f68d8" />
    
    <!-- Cute Lion Mouth -->
    <path d="M 256 310 Q 256 340 226 335" fill="none" stroke="#4f68d8" stroke-width="10" stroke-linecap="round" />
    <path d="M 256 310 Q 256 340 286 335" fill="none" stroke="#4f68d8" stroke-width="10" stroke-linecap="round" />
  </g>
</svg>
